<svg xmlns="http://www.w3.org/2000/svg" viewBox="0 0 64 64">
  <!-- Background circle with dark background -->
  <circle cx="32" cy="32" r="32" fill="#1a1a1a"/>

  <!-- Reggae stripes in background -->
  <rect x="0" y="8" width="64" height="8" fill="#DC143C" opacity="0.8"/>
  <rect x="0" y="16" width="64" height="8" fill="#FFD700" opacity="0.8"/>
  <rect x="0" y="24" width="64" height="8" fill="#1DB954" opacity="0.8"/>

  <!-- Guitar body -->
  <ellipse cx="32" cy="38" rx="14" ry="16" fill="#8B4513" stroke="#654321" stroke-width="1.5"/>

  <!-- Sound hole -->
  <circle cx="32" cy="38" r="5" fill="#2a1a0f"/>
  <circle cx="32" cy="38" r="4" fill="none" stroke="#8B4513" stroke-width="0.8"/>

  <!-- Guitar neck -->
  <rect x="28" y="10" width="8" height="18" fill="#654321" rx="1"/>

  <!-- Frets -->
  <line x1="28" y1="14" x2="36" y2="14" stroke="#d4d4d4" stroke-width="0.6"/>
  <line x1="28" y1="18" x2="36" y2="18" stroke="#d4d4d4" stroke-width="0.6"/>
  <line x1="28" y1="22" x2="36" y2="22" stroke="#d4d4d4" stroke-width="0.6"/>
  <line x1="28" y1="26" x2="36" y2="26" stroke="#d4d4d4" stroke-width="0.6"/>

  <!-- Strings -->
  <line x1="30" y1="10" x2="30" y2="50" stroke="#e0e0e0" stroke-width="0.5" opacity="0.9"/>
  <line x1="32" y1="10" x2="32" y2="50" stroke="#e0e0e0" stroke-width="0.5" opacity="0.9"/>
  <line x1="34" y1="10" x2="34" y2="50" stroke="#e0e0e0" stroke-width="0.5" opacity="0.9"/>

  <!-- Headstock -->
  <rect x="27" y="6" width="10" height="5" fill="#654321" rx="1"/>

  <!-- Tuning pegs -->
  <circle cx="29" cy="8" r="1.2" fill="#FFD700"/>
  <circle cx="32" cy="8" r="1.2" fill="#FFD700"/>
  <circle cx="35" cy="8" r="1.2" fill="#FFD700"/>

  <!-- Bridge -->
  <rect x="28" y="50" width="8" height="2" fill="#654321" rx="0.5"/>

  <!-- Highlight on guitar body -->
  <ellipse cx="28" cy="34" rx="4" ry="6" fill="#ffffff" opacity="0.15"/>
</svg>
